/* XPM */
static char *finish64[] = {
"64 64 4 1",
"  c #3E3E3E",
"A c #E00000",
"B c #000000",
"C c #FFFFFF",
"                                                                ",
"                                                                ",
"                                                                ",
"                                                                ",
"                                                                ",
"                                                                ",
"                                                                ",
"                                                                ",
"     AAAA                                                AAAA   ",
"     AAAA                                                AAAA   ",
"     AAAA                                                AAAA   ",
"     AAAA                                                AAAA   ",
"     AAAA                                                AAAA   ",
"     AAAA                                                AAAA   ",
"     AAAA                                                AAAA   ",
"     AAAA                                                AAAA   ",
"     AAAA                                                AAAA   ",
"     AAAA                                                AAAA   ",
"     AAAA                                                AAAA   ",
"     AAAA                                                AAAA   ",
"     AAAABBBCCCCBBBBCCCCBBBBCCCCBBBBCCCCBBBBCCCCBBBBCCCC AAAA   ",
"     AAAABBBCCCCBBBBCCCCBBBBCCCCBBBBCCCCBBBBCCCCBBBBCCCC AAAA   ",
"     AAAABBBCCCCBBBBCCCCBBBBCCCCBBBBCCCCBBBBCCCCBBBBCCCC AAAA   ",
"     AAAABBBCCCCBBBBCCCCBBBBCCCCBBBBCCCCBBBBCCCCBBBBCCCC AAAA   ",
"     AAAACCCBBBBCCCCBBBBCCCCBBBBCCCCBBBBCCCCBBBBCCCCBBBB AAAA   ",
"     AAAACCCBBBBCCCCBBBBCCCCBBBBCCCCBBBBCCCCBBBBCCCCBBBB AAAA   ",
"     AAAACCCBBBBCCCCBBBBCCCCBBBBCCCCBBBBCCCCBBBBCCCCBBBB AAAA   ",
"     AAAACCCBBBBCCCCBBBBCCCCBBBBCCCCBBBBCCCCBBBBCCCCBBBB AAAA   ",
"     AAAABBBCCCCBBBBCCCCBBBBCCCCBBBBCCCCBBBBCCCCBBBBCCCC AAAA   ",
"     AAAABBBCCCCBBBBCCCCBBBBCCCCBBBBCCCCBBBBCCCCBBBBCCCC AAAA   ",
"     AAAABBBCCCCBBBBCCCCBBBBCCCCBBBBCCCCBBBBCCCCBBBBCCCC AAAA   ",
"     AAAABBBCCCCBBBBCCCCBBBBCCCCBBBBCCCCBBBBCCCCBBBBCCCC AAAA   ",
"     AAAA                                                AAAA   ",
"     AAAA                                                AAAA   ",
"     AAAA                                                AAAA   ",
"     AAAA                                                AAAA   ",
"     AAAA                                                AAAA   ",
"     AAAA                                                AAAA   ",
"     AAAA                                                AAAA   ",
"     AAAA                                                AAAA   ",
"     AAAA                                                AAAA   ",
"     AAAA                                                AAAA   ",
"     AAAA                                                AAAA   ",
"     AAAA                                                AAAA   ",
"     AAAA                                                AAAA   ",
"     AAAA                                                AAAA   ",
"     AAAA                                                AAAA   ",
"     AAAA                                                AAAA   ",
"     AAAA                                                AAAA   ",
"     AAAA                                                AAAA   ",
"     AAAA                                                AAAA   ",
"     AAAA                                                AAAA   ",
"     AAAA                                                AAAA   ",
"     AAAA                                                AAAA   ",
"     AAAA                                                AAAA   ",
"     AAAA                                                AAAA   ",
"     AAAA                                                AAAA   ",
"                                                                ",
"                                                                ",
"                                                                ",
"                                                                ",
"                                                                ",
"                                                                ",
"                                                                "
};
