/* XPM */
static char *jerry[] = {
"64 64 4 1",
"  c #3E3E3E",
"A c #8C0000",
"B c #DC1E1E",
"C c #FF5050",
"                                      A                         ",
"                                      A                         ",
"                                      A                         ",
"                                      A                         ",
"                                  AAAAAAAAA                     ",
"                                  ABBBBBBBA                     ",
"                                  ABBBBBBBA                     ",
"                                  ABBBBBBBA                     ",
"                                  ABBBBBBBA                     ",
"                                  ABBBBBBBA                     ",
"                                  ABBBBBBBA                     ",
"                                  ABBBBBBBA                     ",
"                AAAAAAAAAAAAAAAAAAAAAAAAAAAAAAAAA               ",
"                ABBBBBBBBBBBBBBBBBBBBBBBBBBBBBABA               ",
"                ABBABBBBBBBBBBBBBBBBBBBBBBBBBAAAA               ",
"                ABAAABBBBBBBBBBBBBBBBBBBBBBBAAABA               ",
"                ABCCCCCCCCBBBBBBBBBBBBBBBBBBAABBA               ",
"                ABCCCCCCCCBBBBBBBBBBBBBBBBBAAABBA               ",
"                ABCCCCCCCCBBBBBBBBBBBBBBBBAAABBBA               ",
"                ABCCCCCCCCBBBBBBBBBBBBBBBAAABBBBA               ",
"                ABCCCCCCCCBBBBBBBBBBBBBBBAABBBBBA               ",
"                ABCCCCCCCCBBBBBBBBBBBBBBAAABBBBBA               ",
"                ABCCCCCCCCBBBBBBBBBBBBBAAABBBBBBA               ",
"                ABCCCCCCCCABBBBBBBBBBBAAABBBBBBBA               ",
"                ABBBBBBBBAAABBBBBBBBBAAABBBBBBBBA               ",
"                ABBBBBBBBBAAABBBBBBBBAABBBBBBBBBA               ",
"                ABBBBBBBBBBAABBBBBBBAAABBBBBBBBBA               ",
"                ABBBBBBBBBBAAABBBBBAAABBBBBBBBBBA               ",
"                ABBBBBBBBBBBAAABBBAAABBBBBBBBBBBA               ",
"                ABBBBBBBBBBBBAAABBAABBBBBBBBBBBBA               ",
"                ABBBBBBBBBBBBBAABAAABBBBBBBBBBBBA               ",
"                ABBBBBBBBBBBBBAAAAABBBBBBBBBBBBBA               ",
"                ABBBBBBBBBBBBBBAAABBBBBBBBBBBBBBA               ",
"                ABBBBBBBBBBBBBAAAAABBBBBBBBBBBBBA               ",
"                ABBBBBBBBBBBBBAABAAABBBBBBBBBBBBA               ",
"                ABBBBBBBBBBBBAAABBAABBBBBBBBBBBBA               ",
"                ABBBBBBBBBBBAAABBBAAABBBBBBBBBBBA               ",
"                ABBBBBBBBBBAAABBBBBAAABBBBBBBBBBA               ",
"                ABBBBBBBBBBAABBBBBBBAAABBBBBBBBBA               ",
"                ABBBBBBBBBAAABBBBBBBBAABBBBBBBBBA               ",
"                ABBBBBBBBAAABBBBBBBBBAAABBBBBBBBA               ",
"                ABBBBBBBAAABBBBBBBBBBBAAABBBBBBBA               ",
"                ABBBBBBAAABBBBBBBBBBBBBAAABBBBBBA               ",
"                ABBBBBBAABBBBBBBBBBBBBBBAAABBBBBA               ",
"                ABBBBBAAABBBBBBBBBBBBBBBBAABBBBBA               ",
"                ABBBBAAABBBBBBBBBBBBBBBBBAAABBBBA               ",
"                ABBBAAABBBBBBBBBBBBBBBBBBBAAABBBA               ",
"                ABBBAABBBBBBBBBBBBBBBBBBBBBAAABBA               ",
"                ABBAAABBBBBBBBBBBBBBBBBBBBBBAABBA               ",
"                ABAAABBBBBBBBBBBBBBBBBBBBBBBAAABA               ",
"                ABBABBBBBBBBBBBBBBBBBBBBBBBBBAAAA               ",
"                ABBBBBBBBBBBBBBBBBBBBBBBBBBBBBABA               ",
"                AAAAAAAAAAAAAAAAAAAAAAAAAAAAAAAAA               ",
"                                                                ",
"                                                                ",
"                                                                ",
"                                                                ",
"                                                                ",
"                                                                ",
"                                                                ",
"                                                                ",
"                                                                ",
"                                                                ",
"                                                                "
};
