/* XPM */
static char *sprite_player_xpm[] = {
"64 64 28 1 ",
"  c None",
". c #A39B7C",
"X c #A29B7D",
"o c #A39C7C",
"O c #A29C7D",
"+ c #A39C7D",
"@ c #A7A080",
"# c #AAA383",
"$ c #ACA584",
"% c #B1A987",
"& c #B5AE8B",
"* c #BAB18F",
"= c #BAB28F",
"- c #BFB792",
"; c #C0B793",
": c #C2B995",
"> c #C3BB96",
", c #C8C09A",
"< c #CDC49D",
"1 c #D1C9A1",
"2 c #D4CAA3",
"3 c #D6CDA4",
"4 c #D8CEA6",
"5 c #DBD2A8",
"6 c #DFD6AC",
"7 c #E4DBAF",
"8 c #E9DFB3",
"9 c #EEE4B7",
"                                                                ",
"                                                                ",
"                                                                ",
"                                                                ",
"                                                                ",
"                                                                ",
"                                                                ",
"                                                                ",
"                                                                ",
"                                                                ",
"                                                                ",
"                                                                ",
"                                                                ",
"                                                                ",
"                                       ++++++++++               ",
"                                   X+++++++++++++               ",
"                                 +++++@<8999999,++              ",
"                               ++++-999999999995++              ",
"                             +++@699999999999995++              ",
"                           +++@89999999999999995++              ",
"                          +++3999999999999999995++              ",
"                         ++$9999999995,*&&&&&&&%++              ",
"          +++++          ++99998,+++++++++++++++++              ",
"         ++++++++        ++8-+++$-3%++++-99995&+++++            ",
"        ++-9998+++X    +++++++++,99&++++999999996$+++           ",
"        ++999999,+++  X++%8+++++<99+++++99999999999%+++         ",
"        ++@9999999@+++++999+++++599++++&9999999999998+++X       ",
"         ++799999993++++995+++++599++++399999999999999<+++      ",
"          ++99999999%+++995+++++599++++99999999999999999+++     ",
"          ++9999999@++++995+++++999++++999999999999999999:+++   ",
"          ++399999,+++++99,+++++999++++99999999997@$9999996++X  ",
"           +*99999+++###992**;::999::::9999999999$++99999996++  ",
"           +&99999::::::994:::::999::::9999999999:++99999999++  ",
"           +&99999::::::994:::::999::::999999999999999999999++  ",
"          ++,99999++++++99,+++++999++++99999999999999999999:++  ",
"          ++899999<+++++99,+++++999++++99999999999999999991++   ",
"          ++9999999%++++99&+  ++999++++999999999999999999:++    ",
"         ++:99999999@+++99&+  ++999++++99999999999999999@++     ",
"         ++99999995+++++99&+  ++999++++199999999999999:+++      ",
"        ++3999999@+++ ++99++  ++999++ +$9999999999997++++       ",
"        ++59999*+++   +++$++  ++999++ ++99999999996++++         ",
"        X+++++++++     +++++  ++995++ ++89999999:++++           ",
"          ++++++              +++&-++ X+&997<$+++++             ",
"                              ++++++   +++++++++X               ",
"                                        +++++                   ",
"                                                                ",
"                                                                ",
"                                                                ",
"                                                                ",
"                                                                ",
"                                                                ",
"                                                                ",
"                                                                ",
"                                                                ",
"                                                                ",
"                                                                ",
"                                                                ",
"                                                                ",
"                                                                ",
"                                                                ",
"                                                                ",
"                                                                ",
"                                                                ",
"                                                                "};