/* XPM */
static char *mario_nobg_xpm[] = {
"64 64 67 1",
"  c #3E3E3E",
"A c #151312",
"B c #952519",
"C c #A82C1B",
"D c #C23B1C",
"E c #DB491E",
"F c #B8371B",
"G c #CE4623",
"H c #040404",
"I c #F2E3D6",
"J c #C96F59",
"K c #FCFCFC",
"L c #CA6F60",
"M c #E65B17",
"N c #D53123",
"O c #E14B20",
"P c #E14C1E",
"Q c #000101",
"R c #ECA26E",
"S c #F6BA8C",
"T c #8D471B",
"U c #934E24",
"V c #E79965",
"W c #522711",
"X c #7C4019",
"Y c #703616",
"Z c #161422",
"a c #823917",
"b c #4F1C0D",
"c c #F8C291",
"d c #EFAD81",
"e c #764D41",
"f c #FFFCC6",
"g c #0B0A09",
"h c #2C1814",
"i c #6E2614",
"j c #9F6846",
"k c #821E16",
"l c #BB6634",
"m c #7C1D13",
"n c #BF5F20",
"o c #0F0E0F",
"p c #405078",
"q c #343F62",
"r c #3A486E",
"s c #171213",
"t c #757EA2",
"u c #6E779C",
"v c #EFB143",
"w c #977152",
"x c #414E77",
"y c #03187A",
"z c #F8A950",
"0 c #A1691A",
"1 c #9F681C",
"2 c #575757",
"3 c #2D2C2C",
"4 c #454445",
"5 c #646D8E",
"6 c #F76E1C",
"7 c #F76B20",
"8 c #FF881B",
"9 c #F99D52",
"! c #FC771B",
"# c #323D5B",
"$ c #211D20",
"% c #353434",
"                                                                ",
"                                                                ",
"                                                                ",
"                                                                ",
"                                                                ",
"                                                                ",
"                                                                ",
"                                                                ",
"                                                                ",
"                                                                ",
"                                                                ",
"                                                                ",
"                                                                ",
"                            AAAAAAAA                            ",
"                          AABCDDDDEBAA                          ",
"                        AABBDDDDDDDFBBAA                        ",
"                        AABBDDDGGDDDBBAH                        ",
"                       ABBDDDDFIIFDDDDBBA                       ",
"                       AFDDDDJICCIKDDDDFA                       ",
"                      ABDDDDDLIMMIKDDDDDBA                      ",
"                      ABBBDDDDDDDDDDDDBBBA                      ",
"                      ANCCOPEEEEEEEEEGBCNA                      ",
"                      AABBBBCCCFCCCCBBBBAA                      ",
"                    QARAAACDDDDDDDDDDCAAARA                     ",
"                    HASATUVWWWWVVWWWWVTXASA                     ",
"                      AYWYSIZZZSSZZAISWWYA                      ",
"                      HabWSIZZZSSAZZISbbTH                      ",
"                       ASSSIZZZSSZZZISSSA                       ",
"                      ABcdASZeSSSSfZSASSBA                      ",
"                    gABDWWAhijSSSSfYhAWWDBA                     ",
"                   AhBDDDFkAAWTSSTlAAmBCDDBhA                   ",
"                   AhkFDFFmAAWYddanAAmBBFFBbA                   ",
"                   Ao   mmmpqZAAAAHrpmmm   sA                   ",
"                  A     turvvwpxrxyzvruu     A                  ",
"                  A     AAAA0WAAAAH1AAAA     A                  ",
"                  A     2223AAA22AAA3224     A                  ",
"                   HHH55HHHHAT6zz78AHHHH55HHH                   ",
"                   AAAuuAAAAAaM9zM8AAAAAuuAAA                   ",
"                      AAxpxAiFM99M!mAppxAA                      ",
"                      Arrx#AmBCMMCFmA#rppA                      ",
"                      AYTTYAm      mAYTTYA                      ",
"                      AWTTWA  HHHHH AWTTWA                      ",
"                      ATTTTA gAAAAH ATTTTA                      ",
"                       A   A2$A%%AH2A   A                       ",
"                        AAAA2hA%%AH2AAAA                        ",
"                           A4AA24AH4A                           ",
"                           A3AA22AH3A                           ",
"                           AAAA22AAAA                           ",
"                             gA4%AH                             ",
"                              A%%AH                             ",
"                               AA                               ",
"                               HH                               ",
"                                                                ",
"                                                                ",
"                                                                ",
"                                                                ",
"                                                                ",
"                                                                ",
"                                                                ",
"                                                                ",
"                                                                ",
"                                                                ",
"                                                                ",
"                                                                "
};
