/* XPM */
static char * bowser_xpm[] = {
"64 64 32 1",
"a c #3E3E3E",
"b c #151924",
"c c #0F1222",
"d c #00002A",
"e c #1F1F26",
"f c #242327",
"g c #1B1F26",
"h c #1B1C25",
"i c #202127",
"j c #322C2A",
"k c #38342D",
"l c #262528",
"m c #D08333",
"n c #F19E35",
"o c #6E4930",
"p c #4F402F",
"q c #E5B662",
"r c #85612F",
"s c #EFCA7B",
"t c #CE953F",
"u c #89793F",
"v c #FFD880",
"w c #F6A93E",
"x c #202427",
"y c #FFB03A",
"z c #29312B",
"A c #357B41",
"B c #3A6139",
"C c #FED47D",
"D c #240024",
"E c #FEA835",
"F c #FECB6E",
"aaaaaaaaaaaaaaaaaaaaaaaaaaaaaaaaaaaaaaaaaaaaaaaaaaaaaaaaaaaaaaaa",
"aaaaaaaaaaaaaaaaaaaaaaaaaaaaaaaaaaaaaaaaaaaaaaaaaaaaaaaaaaaaaaaa",
"aaaaaaaaaaaaaaaaaaaaaaaaaaaaaaaaaaaaaaaaaaaaaaaaaaaaaaaaaaaaaaaa",
"aaaaaaaaaaaaaaaaaaaaaaaaaaaaaaaaaaaaaaaaaaaaaaaaaaaaaaaaaaaaaaaa",
"aaaaaaaaaaaaaaaaaaaaaaaaaaaaaaaaaaaaaaaaaaaaaaaaaaaaaaaaaaaaaaaa",
"aaaaaaaaaaaaaaaaaaaaaaaaaaaaaaaaaaaaaaaaaaaaaaaaaaaaaaaaaaaaaaaa",
"aaaaaaaaaaaaaaaaaaaaaaaaaaaaaaaaaaaaaaaaaaaaaaaaaaaaaaaaaaaaaaaa",
"aaaaaaaaaaaaaaaaaaaaabcdaaaaaacbaaaaaaaaaaaaaaaaaaaaaaaaaaaaaaaa",
"aaaaaaaaaaaaaaaaaaaacefgaaaaahiebaaaaaaaaaaaaaaaaaaaaaaaaaaaaaaa",
"aaaaaaaaaaaaaachbadcejkjcbbhahljecaaaaaaaaaaaaaaaaaaaaaaaaaaaaaa",
"aaaaaaaaaaaaaahlfahejmnohiiibcpqjeiaaaaaaaaaaaaaaaaaaaaaaaaaaaaa",
"aaaaaaaaaaaaccjjicljpnnrjjjjhbpskieacbhaaaaaaaaaaaaaaaaaaaaaaaaa",
"aaaaaaaaaaaaietuhgpnnnnnnnnmlpssjfeaefeaaaaaaaaaaaaaaaaaaaaaaaaa",
"aaaaaaaaaaaafitufjonnnnnnnnmkpvsjfecjklaaaaaaaaaaaaaaaaaaaaaaaaa",
"aaaaaaaaaaaafituonnnnnnrjkjpqsvsjfebuwoaaaaaaaaaaaaaaaaaaaaaaaaa",
"aaaaaaaaaaaaiituonnmmmnoljxksvvqjfhjtyraaaaaacbbaaaaaaaaaaaaaaaa",
"aaaaaaaaaaaafljxonmjjjkrnrzAsvskffltyyraaaaaagliaaaaaaaaaaaaaaaa",
"aaaaaaaaaaaailjjrnmxlkmnnrzAssqjiiltwwoBzccccjjxaaaaaaaaaaaaaaaa",
"aaaaaaaaaaaacgrnuAAAAmnnrlBAAAkfbbbjBABBBeiegtubaaaaaaaaaaaaaaaa",
"aaaaaaaaaaaaagmnuAAkmnnnAAAAAAzibeagBBBBBlljjtubaaaaaaaaaaaaaaaa",
"aaaaaaaaaaahceppBAAkmpcaAAAAAAAliihbzBBABBBtwyubaaaaaaaaaaaaaaaa",
"aaaaaaaaaakiljkjBAAlkicaAAAzzzzflfeaaaBBBBBwwwubaaaaaaaaaaaaaaaa",
"aaaaaaaaabbltssssukAAzaaAAosssqkflibbczzBBBBBABeaaaaaaaaaaaaaaaa",
"aaaaaaaahejqsCvCCssqpkkjussvvvvqjflfiiffxBBBBBzxbeeeeeaaaaaaaaaa",
"aaaaaaaahijsutvuuvvCssssCvvvvvvsjflllflliazBBBBzifffffiaaaaaaaaa",
"aaaaaaaahijqssvssvCCvvvvCCCCCvvsjflligiliiezBBBzlllllfeaaaaaaaaa",
"aaaaaaaahijqvCCvvCCCCCCvukppsvvsjflleDejjkjeaBBButtmlfhaaaaaaaaa",
"aaaaaaaahijqCCCCCCCCCCCulcejsvvqjjkfffgrnntjdBBBuyytffeaaaaaaaaa",
"aaaaaaaaahlkqvuuvCCCCCojbgfksvspfkkilionEEnjeBBBButkhgdaaaaaaaaa",
"aaaaaaaaaaacppjkppppptlfihpqCspekmuhfgryEEEmmpzBBBBgaaaaaaaaaaaa",
"aaaaaaaaaaaachebbieeeagoroovCqlikEyahonEEEEEypzBBBBidaaaaaaaaaaa",
"aaaaaaaaaaaaahbaexkrrmrmooqCqpibknoggryEmppppjlBBBBidaaaaaaaaaaa",
"aaaaaaaaaaaaaaaeecpmmmmmoovsphadknpierymkieddilzBBBiaaaaaaaaaaaa",
"aaaaaaaabbbbaadljvjpppppjrCqjiekmEmkhrmkelfbdxlzBBBllligaaaaaaaa",
"aaaaaaaefffihacusCqqqqFqqsqkliktEEEpekkhelffifleBBBtttjhaaaaaaaa",
"aaaaaaaellllfihuvCCCCCCCCvtltqqFFFwmmogfflllllleBBuyynjbaaaaaaaa",
"aaaaahigpmttpggjuvqpsCCCvqjjsvvCCCwEyrgiptttmtrhzBunpplbaaaaaaaa",
"aaaaaifhFEEEmumojoplppppputqCCCCFwEErjeejonyEyrgzBBofecaaaaaaaaa",
"aaaaaeiblponEEyrhhbflummmmyywwwwwFyrlommrhponyrgzABgeikaaaaaaaaa",
"aaaaaifffbguEEEtrbbfkqFFFFFFFFFFFCufrnyynuilnyrizBzfaaaaaaaaaaaa",
"aaaaaciffjunEyEEmhifksvCCCCCCCCCCCpgtymuEEmlpnriiciiadebehaaaaaa",
"aaaaaadifjEymrmyuilfjqCCCCCCCCCCCFpbmmpryEErjrphefiagbeokbaaaaaa",
"aaaaaahlfrmmpbuyuelljmqFFFFFFFFFFypddbhrEEEEpbprblxbloonpcaaaaaa",
"aaaaaahflfggxertreffiltywwwwwwwwwCpcpkeamtEEphrmcfjpoEEEpcaaaaaa",
"aaaaaaahifhaailfliaacjqCCCCCCCCCCCohmrcibjnEpjjjkkoEEEEnpcaaaaaa",
"aaaaaaaabcaaaccdcbailkqCCCCCCCCCCCwpmrcfemEnpmrrnnnEEEEpfeaaaaaa",
"aaaaaaaaaaaaaaaaaabkttptCCCCCCCCFwomEriliaojlmrryEEEEEnpcfaaaaaa",
"aaaaaaaaaaaaaaaaacpnEEtouywwwwwwwEpmEntrbchjmErrEEEEEnpldaaaaaaa",
"aaaaaaaaaaaaaaaaacoEEEEmuqFFFFFFFFpmEEyubjmmEErrEEEEnphdaaaaaaaa",
"aaaaaaaaaaaaaaaaacpEEEEyrpCCCCCCCCpkmEEnmmEEEErryEmppedaaaaaaaaa",
"aaaaaaaaaaaaaaaaabjoEEEEtmppuyyyyytmomEEEEEEEErkpppgchgaaaaaaaaa",
"aaaaaaaaaaaaaaagffffrnEEEnrpprrrrrrrjrEEEEEEEEuifggiaaaaaaaaaaaa",
"aaaaaaaaaaaaaaeefepurnEEEEyubccccccbomEEEEEEEEniliaaaaaaaaaaaaaa",
"aaaaaaaaaaaaahiffbFyyEEEEEEmphcaaaahmyyEatmtammalfeaaaaaaaaaaaaa",
"aaaaaaaaaaaaaifffertmmmmmmmtrihaaaagrttmleiifiiefliaaaaaaaaaaaaa",
"aaaaaaaaaaaaaifffffllllllllllfhaaaaillllffffffffffeaaaaaaaaaaaaa",
"aaaaaaaaaaaaabbbbbbcccccccccchdaaaabccccbbhbbhbbbbcaaaaaaaaaaaaa",
"aaaaaaaaaaaaaaaaaaaaaaaaaaaaaaaaaaaaaaaaaaaaaaaaaaaaaaaaaaaaaaaa",
"aaaaaaaaaaaaaaaaaaaaaaaaaaaaaaaaaaaaaaaaaaaaaaaaaaaaaaaaaaaaaaaa",
"aaaaaaaaaaaaaaaaaaaaaaaaaaaaaaaaaaaaaaaaaaaaaaaaaaaaaaaaaaaaaaaa",
"aaaaaaaaaaaaaaaaaaaaaaaaaaaaaaaaaaaaaaaaaaaaaaaaaaaaaaaaaaaaaaaa",
"aaaaaaaaaaaaaaaaaaaaaaaaaaaaaaaaaaaaaaaaaaaaaaaaaaaaaaaaaaaaaaaa",
"aaaaaaaaaaaaaaaaaaaaaaaaaaaaaaaaaaaaaaaaaaaaaaaaaaaaaaaaaaaaaaaa",
"aaaaaaaaaaaaaaaaaaaaaaaaaaaaaaaaaaaaaaaaaaaaaaaaaaaaaaaaaaaaaaaa"
};