/* XPM */
static char * bowser_grab_xpm[] = {
"64 64 32 1",
"a c #3E3E3E",
"b c #0F1113",
"c c #121415",
"d c #171613",
"e c #2F2014",
"f c #8A420C",
"g c #211C15",
"h c #6B360F",
"i c #E06205",
"j c #000011",
"k c #080B11",
"l c #543A13",
"m c #372914",
"n c #191915",
"o c #171616",
"p c #C88010",
"q c #D38D13",
"r c #6F4B12",
"s c #F3A111",
"t c #C24A07",
"u c #E99B16",
"v c #E89512",
"w c #9C6A13",
"x c #8A5A10",
"y c #B8710B",
"z c #353915",
"A c #EF9F11",
"B c #F7AC1F",
"C c #F3A91F",
"D c #F2A81E",
"E c #ECA21B",
"F c #EF9D0F",
"aaaaaaaaaaaaaaaaaaaaaaaaaaaaaaaaaaaaaaaaaaaaaaaaaaaaaaaaaaaaaaaa",
"aaaaaaaaaaaaaaaaaaaaaaaaaaaaaaaaaaaaaaaaaaaaaaaaaaaaaaaaaaaaaaaa",
"aaaaaaaaaaaaaaaaaaaaaaaaaaaaabcbbcbaaaaaaaaaaaaaaaaaaaaaaaaaaaaa",
"aaaaaaaaaaaaaaaaaaaaaaaaaaaadceffgcbaaaaaaaaaaaaaaaaaaaaaaaaaaaa",
"aaaaaaaaaaaaaaaaaaaaaaaaaaaacehiihgcaaaaaaaaaaaaaaaaaaaaaaaaaaaa",
"aaaaaaaaaaaaaaaaaajkbaaaaabcbliiiimbbaaaaaabkaaaaaaaaaaaaaaaaaaa",
"aaaaaaaaaaaaaaaaajgenkaaakdnnhiiiilgojkaaabnegaaaaaaaaaaaaaaaaaa",
"aaaaaaaaaaaaaaaaaklpgjaaadgohiiiiiihbcdaaajgplkaaaaaaaaaaaaaaaaa",
"aaaaaaaaaaaaaaaaklqpgjaaoofhhiiiiiihbcodaajgqqlkaaaaaaaaaaaaaaaa",
"aaaaaaaaaaaaaaaakrspnckadcthhiiiiiihmthcaccnqslkaaaaaaaaaaaaaaaa",
"aaaaaaaaaaaaaaaakruvwnkcofttftiiiitftitcckgwvulkaaaaaaaaaaaaaaaa",
"aaaaaaaaaaaaaaaakruuvxrecltittiiiittitmcgrxuuulkaaaaaaaaaaaaaaaa",
"aaaaaaaaaaaaaaaaklvuuuxhhhhfhftiithhfhhhhxuuvvlkaaaaaaaaaaaaaaaa",
"aaaaaaaaaaaaaaaakmyuvyltiifgcmfttfecgfiitlyuuwmkaaaaaaaaaaaaaaaa",
"aaaaaaaaaaaaaaaaakmqqeftiiifezzzzzzefiiitfmqpmjaaaaaaaaaaaaaaaaa",
"aaaaaaaaaaaaaaaaadomwgggttiifzzzzzzxiitfggewmobaaaaaaaaaaaaaaaaa",
"aaaaaaaaaaaaaaaaaabnggfennfiifnzznfiifnnefggdbaaajaaaaaaaaaaaaaa",
"aaaaaaaaaaaaddocaaabonzgckfiifnzzntiifkdgznokaaadnodaaaaaaaaaaaa",
"aaaaaaaaaaaaowqrkbddnzzgdaifftnzzntffiadgzznodbkrqxcaaaaaaaaaaaa",
"aaaaaaaaaaajoyupwrccczzgkaihmhcnncfehiabgzzccorwpAwcaaaaaaaaaaaa",
"aaaaaaaaaaaaolwvplewwwzccdihjzwwwwmjhidcczwwwelpuylbaaaaaaaaaaaa",
"aaaaaaaaaaaaabfwlgwBBCxrgkjjlyBBBBwljjkgrxCBBwglyxkaaaaaaaaaaaaa",
"aaaaaaaaaaaaabhlewBDCCBBxlrlxwyCCywxlrlrBBCDDBxelrbaaaaaaaaaaaaa",
"aaaaaaaaaaaabbccxBDDCBCCBBBBwgmCDmewBBBBCCBDDDBrccbbaaaaaaaaaaaa",
"aaaaaaaaaaacnoobrBDCEpECCCCCBplCDlpBCCCCCEqDCDBrconobaaaaaaaaaaa",
"aaaaaaaaaaknncakrBDCueqBCCCCCCDCCDCCCCCCBqmuDDBrkadndjaaaaaaaaaa",
"aaaaaaaaaabockakrBDEyeqBCCCCCCCEECCCCCCCCqmyEDBrkabdokaaaaaaaaaa",
"aaaaaaaaakonoobkrqCEygeqBCCCCBqmmqBCCCCBqeeyECvrkbodndaaaaaaaaaa",
"aaaaaaaabdndonnogxBDupezwqqqqyzoozyqqqqwzepuDBxeonnddndbaaaaaaaa",
"aaaaaaaabnnaaonnoexvBEebjphllmboocmllhpjbeECqxeonndaannbaaaaaaaa",
"aaacckbbbndbbdnooogrqExecjbcehhhhhheckjcewuqrgoodnobbnnbcbkbbaaa",
"aabcmrlbdnollgoddnogxuqmodoehffffffhecdomsvxgonddoglmcndblrmcbaa",
"aaocrspmcglyphgconnogwvrgncmffttttffmcngrvwnonnncgrpylgclqsrcdaa",
"aaoclvsymeyvvprmmodnoopAmodkltiiiitlkcomAqnondoemrqsvygmpsFlodaa",
"aadclpFspegyqvvvxkbnneyulnbkhfttttfhkbglupennbbrqFvqwomqsFplccaa",
"cjjdnlqsApgggyvFxonoewmpElogggeeeeeggolDpmwgnnoxsAyggeqAAqrocjjc",
"nddnclFAAApecewFqpfewyepBuqqqqqqqqqqqquBpeywexpvsyecmqFAFFrcnnoo",
"nwpppqAAAAspmcewFvxeylyECBBBBBBBBBBBBBBCEylyewvswecmpsAAAsqppqwn",
"cpssssAAAAAAmbbmwpmeyeqBCCCCCCEqqDCCCCCCBEmyempwmbbmAAFFFFssssqc",
"dwqqvFFAAAAumknbrygrygrqCBBBBDprrpDBBBBDqreyrgyrbnkmFAFFFFAvvqwd",
"nrrxqsFFFFAFxeocrwmpyrohqvvvvprhlrpvvvvphoxypmwrcoexFFFFFFspxfrn",
"dcmwvFvFAAFFslcohxmppurnrxxxxrlpplrxxxxrorEqpmfhoclsFFFFFvFvxmcd",
"bbyssvqAFvFFslcclrmpDDCrmmmmmrqppprmmmmmlCCDpmrlcblsFFvFFqvssycb",
"dcwsvypsvyFAqlkdncmpEDCDDDDDDDDDDDDDDDDDDCCDpmondklqAvyvAyyusyco",
"nbvFwcrspmvvmononnmpuDDCCCCCCCCCCCCCCCCCCCDupmnnonomFqeqsldwFvbn",
"djprnlvspeqpmcnolrmpuuuuDDDDDDDDDDDDDDCDuuuupmxhoncmpqeqsvrnrpjo",
"bceebrsvygmmgbklyfmpEDuuuuuuuuuuuuuuuuuuuuEEpmxyhbbgmmgyvsxbeecb",
"adbbdmlmmokkjbryvwmpDCEEEEEEEEEEEEEEEEEEEECDpmwFprbjkknmelmcbkca",
"aaaadooocdaaakxFsqxrqDCCCCCCCCCCCCCCCCCCCCDqrxqsFwkaaadcoccbaaaa",
"aaaaabddcaaabrpsAsynyuEEDCCCCCCDCDCCDDCDEEuygpsAsqrbaaacddbaaaaa",
"aaaaaaaaaaaacysAAsqrxuEuEEEEEEEEEEEEEEEEuEuxrqsAAsycaaaaaaaaaaaa",
"aaaaaaaaaaaacysAAAsqlyDEuuuuuuuuuuuuuuuuEDylvsAAAsycaaaaaaaaaaaa",
"aaaaaaaaaaaacysAAAAsvmyECCCDDDDDDDDDDDCCEplusAAAAsycaaaaaaaaaaaa",
"aaaaaaaaaaaacxvFAAAAFymxqEDDDDDDDDDDCDEqxmyFAAFFFqxcaaaaaaaaaaaa",
"aaaaaaaaaaaadgxvAAAAAvymgxqDDDDDDDDDDvxgmyvAAFFFvxgdaaaaaaaaaaaa",
"aaaaaaaaaaaabbxpqAFFAAvyeemxqppppppqxmeeyvAAFFAqpxbbaaaaaaaaaaaa",
"aaaaaaaaaaaaadexqFFFFFAvymbemmmmmmmmecmyvAFFFFFqxecaaaaaaaaaaaaa",
"aaaaaaaaaaaadbrpvFFFFFFFplclxxxxxxxxlclpFFFFFFFvprbcaaaaaaaaaaaa",
"aaaaaaaaaadccrqssssFFFFFvlbmxpqqqqpxlblvFFFFFssFsqrccjaaaaaaaaaa",
"aaaaaaaaaaknlpvFqwysFFFFswmcmxxxxxxmcmwsFFFFsywqFvylnkaaaaaaaaaa",
"aaaaaaaaaaknyspprjmpFsssssrbcbbbbbbcbrsssssFpmjrppswnkaaaaaaaaaa",
"aaaaaaaaaakdbbwrbbkepppppylbaaaaaaaablypppppekbblwcbdkaaaaaaaaaa",
"aaaaaaaaaakdddnnddddnnnnnnndaaaaaaaadnnnnnnnddddnndddbaaaaaaaaaa",
"aaaaaaaaaaakkkkkkkkkjjjjjjkoaaaaaaaaokjjjjjjkkkkkkkkkaaaaaaaaaaa"
};