/* XPM */
static char *wall64[] = {
"64 64 42 1",
"  c #3E3E3E",
"A c #000000",
"B c #696164",
"C c #675D61",
"D c #D1170B",
"E c #E3452B",
"F c #ED6D4E",
"G c #DA2411",
"H c #DE361C",
"I c #E0371E",
"J c #91070B",
"K c #2B2425",
"L c #DB4129",
"M c #E13A20",
"N c #A9080C",
"O c #3D3337",
"P c #C50C0B",
"Q c #D9382B",
"R c #E85438",
"S c #E85F42",
"T c #271D21",
"U c #D1CCC7",
"V c #0C2528",
"W c #C2BEBD",
"X c #F3F3EC",
"Y c #B5B3B3",
"Z c #E7E1DA",
"a c #FA0D07",
"b c #F71206",
"c c #EAE8E5",
"d c #ABA9AB",
"e c #E5DACF",
"f c #9B9796",
"g c #261C1D",
"h c #898787",
"i c #A09B97",
"j c #DCD2CA",
"k c #7E7A77",
"l c #837B79",
"m c #AF130F",
"n c #C6BFC3",
"o c #7B070A",
"                                                                ",
"                                                                ",
"                                                                ",
"                                                                ",
"                                                                ",
"                                                                ",
"                                                                ",
"                                                                ",
"                                                                ",
"                            AAAAAAAA                            ",
"                            AAAAAAAABBC                         ",
"                         AAADEEEFEGHAAA                         ",
"                        AGDEDDDDDDDEEDDA                        ",
"                       AIEEJJKKKKKKJJLEMA                       ",
"                       AIEEJNKKKKKKJJEEMAO                      ",
"                       AMEEJKKKKKKKKPEEMA                       ",
"                       ADEQPNKKKKKKNPEEDA                       ",
"                       AJQQRDNNNNNNDRQQJA                       ",
"                       AJQQRDNNNNNNDRQQJA                       ",
"                       ADJJIIIIIHIIHIJJDA                       ",
"                       ANDDJJGGSSEEJJPDNA                       ",
"                       ADNNDDNNNNNNDDNNDA                       ",
"                       ADJJDDNNNNNNDDJJDA                       ",
"                       AKPPNNPNPPNPNNDPTA                       ",
"                       AUKKPPNNNNNNPPVKUA                       ",
"                       AUWUKTPPPPPPKTXYUA                       ",
"                   O OOAZYWAAabbbabAAcdeA            O     O    ",
"                       AfZZccgTTTTTccZefA                       ",
"                       AYffcXeeeeeeXXhfYA                       ",
"                       AhUUfieeXXeeiiUUhA                       ",
"                       AYjZklXXXXXXkkUeYA                       ",
"                       ATffjjiiiiifeehfTA                       ",
"                       ADKKddjjjjjjddATDA                       ",
"                       AJPmggdYYYYYgTmNJA                       ",
"                       AJPDTTddddddKKNPJA                       ",
"                       ADJJDDTTTTTTDDJJDA                       ",
"                       ANNNJJDDRRGGJJNNNA                       ",
"                       AgNNPPNNNNNNNPNNTA                       ",
"                       ATNNDDNNNNNNPPNNgA                       ",
"                       AUKVNNPPDPDPNNVKUA                       ",
"                       AUWnTTNNNNNNKTXWUA                       ",
"                       AiZZXXKKKKKKXXeeiA                       ",
"                       AfZZeZAAAAAAeeZZfA                       ",
"                       AWffXXeeeeeecXhfYA                       ",
"                       AhUUfieeXXeeiiUUfA                       ",
"                       AKffUUiiiifiUUffTA                       ",
"                       AKffUUiiiiiiUUhfKA                       ",
"                       ANKKddjjjjjjddAKJA                       ",
"                       AJNNTTYYYYYYKKNNJA                       ",
"                       ANJJNNTgggTgPNoJJA                       ",
"                       ANJJPPTTTgTgPNJJJA                       ",
"                       AoNNJJDDEEDPJJNNoAO                      ",
"                        AJJPPNNNNNNPPJJA                        ",
"                         AAJNPPPPPPNJAA                         ",
"                         AANNPPPPPPNNAA                         ",
"                           AANNNNNNAA                           ",
"                             AAAAAA                             ",
"                                                                ",
"                                                                ",
"                                                                ",
"                                                                ",
"                                                                ",
"                                                                ",
"                                                                "
};
